# xmcd
#
# Track frame offsets: 
#        150
#        18450
#        33860
#        51015
#        65620
#        85185
#        102327
#        125945
#        142980
#        158550
#        173027
#
# Disc length: 2521 seconds
#
# Revision: 3
# Processed by: cddbd v1.5.1PL0 Copyright (c) Steve Scherf et al.
# Submitted via: ExactAudioCopy v0.95a5
#
DISCID=8c09d70b
DTITLE=Bruce Robison - Country Sunshine
DYEAR=2001
DGENRE=Country
TTITLE0=Can't Get There From Here
TTITLE1=Bed Of Ashes
TTITLE2=Blame It On Me
TTITLE3=Devil May Care
TTITLE4=Valentine
TTITLE5=Friendless Marriage [with Kelly Willis]
TTITLE6=What Would Willie Do
TTITLE7=First Thing About Mary
TTITLE8=Sixteen
TTITLE9=Anyone But Me
TTITLE10=Tonight
EXTD=
EXTT0=
EXTT1=
EXTT2=
EXTT3=
EXTT4=
EXTT5=
EXTT6=
EXTT7=
EXTT8=
EXTT9=
EXTT10=
PLAYORDER=
